# xmcd CD database file
#
# Track frame offsets:
#	150
#	10043
#	34805
#	52272
#	66272
#	96534
#	106645
#	123666
#	132115
#	149951
#	168132
#	186349
#	207053
#
# Disc length: 2846 seconds
#
# Revision: 1
# Processed by: cddbd v1.5PL3 Copyright (c) Steve Scherf et al.
# Submitted via: CDex 1.51
#
DISCID=c10b1c0d
DTITLE=Git - Flowers
DYEAR=2003
DGENRE=Country
TTITLE0=Flowers
TTITLE1=Car Ouside The Bar
TTITLE2=Smokey Roses
TTITLE3=Painted Pony
TTITLE4=When You're Gone
TTITLE5=Waiting For You
TTITLE6=Lucky Girl (From Benson, Az)
TTITLE7=Street Sweeper
TTITLE8=Demons In The Mirror
TTITLE9=Man Baby
TTITLE10=This Old House
TTITLE11=Lied To Me
TTITLE12=Hawaiian War Chant
EXTD=YEAR: 2003
EXTT0=
EXTT1=
EXTT2=
EXTT3=
EXTT4=
EXTT5=
EXTT6=
EXTT7=
EXTT8=
EXTT9=
EXTT10=
EXTT11=
EXTT12=
PLAYORDER=
